<svg viewBox="0 0 64 64" fill="none" xmlns="http://www.w3.org/2000/svg"><path d="M18 24c0-6 4-10 8-10 2 0 4 1 6 3 2-2 4-3 6-3 4 0 8 4 8 10" stroke="#C9962D" stroke-width="3" stroke-linecap="round" stroke-linejoin="round"/><path d="M20 29c3 3 7 5 12 5s9-2 12-5" stroke="#17462F" stroke-width="3" stroke-linecap="round"/><path d="M20 32v8c0 7 5 12 12 12s12-5 12-12v-8" stroke="#C9962D" stroke-width="3" stroke-linejoin="round"/><circle cx="27" cy="38" r="1.8" fill="#17462F"/><circle cx="37" cy="38" r="1.8" fill="#17462F"/><path d="M29 45c2 1.5 4 1.5 6 0" stroke="#17462F" stroke-width="2.5" stroke-linecap="round"/></svg>